<svg width="16" height="16" viewBox="0 0 16 16" fill="none" xmlns="http://www.w3.org/2000/svg">
<g id="Group 2">
<path id="Arrow 1" d="M1 7.5C0.723858 7.5 0.5 7.72386 0.5 8C0.5 8.27614 0.723858 8.5 1 8.5V7.5ZM15.3536 8.35355C15.5488 8.15829 15.5488 7.84171 15.3536 7.64645L12.1716 4.46447C11.9763 4.2692 11.6597 4.2692 11.4645 4.46447C11.2692 4.65973 11.2692 4.97631 11.4645 5.17157L14.2929 8L11.4645 10.8284C11.2692 11.0237 11.2692 11.3403 11.4645 11.5355C11.6597 11.7308 11.9763 11.7308 12.1716 11.5355L15.3536 8.35355ZM1 8.5H15V7.5H1V8.5Z" fill="#F1A33B"/>
<path id="Arrow 2" d="M11 3.35C11.1933 3.35 11.35 3.1933 11.35 3C11.35 2.8067 11.1933 2.65 11 2.65V3.35ZM4.75251 2.75251C4.61583 2.8892 4.61583 3.1108 4.75251 3.24749L6.9799 5.47487C7.11658 5.61156 7.33819 5.61156 7.47487 5.47487C7.61156 5.33819 7.61156 5.11658 7.47487 4.9799L5.49497 3L7.47487 1.0201C7.61156 0.883418 7.61156 0.66181 7.47487 0.525126C7.33819 0.388443 7.11658 0.388443 6.9799 0.525126L4.75251 2.75251ZM11 2.65L5 2.65V3.35L11 3.35V2.65Z" fill="#F1A33B"/>
<path id="Arrow 3" d="M11 13.35C11.1933 13.35 11.35 13.1933 11.35 13C11.35 12.8067 11.1933 12.65 11 12.65V13.35ZM4.75251 12.7525C4.61583 12.8892 4.61583 13.1108 4.75251 13.2475L6.9799 15.4749C7.11658 15.6116 7.33819 15.6116 7.47487 15.4749C7.61156 15.3382 7.61156 15.1166 7.47487 14.9799L5.49497 13L7.47487 11.0201C7.61156 10.8834 7.61156 10.6618 7.47487 10.5251C7.33819 10.3884 7.11658 10.3884 6.9799 10.5251L4.75251 12.7525ZM11 12.65H5V13.35H11V12.65Z" fill="#F1A33B"/>
</g>
</svg>
